<svg data-v-423bf9ae="" xmlns="http://www.w3.org/2000/svg" viewBox="0 0 416 90" class="iconLeft"><!----><!----><!----><g data-v-423bf9ae="" id="4bc6b5c0-2ff8-40c0-901e-c233be92f0e1" fill="white" transform="matrix(6.179196680152662,0,0,6.179196680152662,147.41853316836998,-31.65293468322936)"><path d="M6.52 16.02L6.52 16.02L5.77 13.39Q5.75 13.35 5.70 13.31Q5.65 13.27 5.61 13.27L5.61 13.27L2.46 13.27Q2.38 13.27 2.32 13.38L2.32 13.38L0.68 16.85L-0.59 17.12L-0.63 16.98Q2.12 12.36 4.12 8.41L4.12 8.41Q4.13 8.37 4.13 8.31L4.13 8.31Q4.13 8.27 4.09 8.22Q4.05 8.18 3.96 8.16L3.96 8.16L2.70 7.95L2.70 7.57L5.42 7.57Q5.63 8.70 6.72 12.65L6.72 12.65Q6.92 13.40 7.06 13.87Q7.20 14.33 7.44 14.96Q7.68 15.59 7.91 15.98L7.91 15.98Q8.16 16.41 8.80 16.41L8.80 16.41Q8.81 16.41 9.41 16.37L9.41 16.37L9.42 16.73L7.96 17.14Q7.64 17.23 7.33 17.23L7.33 17.23Q7.17 17.23 7.04 17.13Q6.91 17.04 6.82 16.84Q6.72 16.65 6.66 16.48Q6.60 16.32 6.52 16.02ZM4.37 9.08L4.37 9.08L2.74 12.50Q2.73 12.52 2.73 12.63L2.73 12.63Q2.73 12.65 2.76 12.69Q2.80 12.72 2.83 12.72L2.83 12.72L5.46 12.72Q5.56 12.72 5.56 12.63L5.56 12.63Q5.53 12.51 5.53 12.50L5.53 12.50L4.55 9.08Q4.53 9.02 4.45 9.02L4.45 9.02Q4.42 9.02 4.40 9.05Q4.37 9.07 4.37 9.08ZM10.66 8.94L10.66 8.94L11.84 8.54L11.94 8.61Q11.80 10.23 11.79 10.93L11.79 10.93L11.87 11.00L13.66 11.00L13.73 11.05L13.62 11.42L13.54 11.49L11.87 11.49L11.79 11.57L11.79 14.22Q11.79 14.65 11.82 14.97Q11.85 15.30 11.95 15.63Q12.04 15.96 12.25 16.14Q12.46 16.32 12.78 16.32L12.78 16.32Q13.15 16.32 14.05 15.74L14.05 15.74L14.22 15.77L14.31 15.98Q13.00 17.21 12.02 17.21L12.02 17.21Q11.34 17.21 11.01 16.78L11.01 16.78Q10.79 16.50 10.74 16.09Q10.69 15.67 10.69 14.25L10.69 14.25L10.69 11.59L10.61 11.49L9.04 11.49L8.97 11.42L9.06 11.08L9.15 11.00L10.61 11.00L10.69 10.92Q10.69 9.30 10.66 8.94ZM21.72 15.59L21.72 15.59L21.90 15.73L21.90 15.89Q21.33 16.50 20.80 16.86Q20.28 17.23 19.71 17.23L19.71 17.23Q19.25 17.23 19.01 16.82Q18.78 16.41 18.78 15.85L18.78 15.85Q18.78 15.44 18.81 14.51Q18.84 13.58 18.84 13.36L18.84 13.36Q18.84 13.02 18.82 12.75Q18.79 12.49 18.72 12.23Q18.64 11.97 18.51 11.81Q18.38 11.64 18.16 11.54Q17.94 11.44 17.64 11.44L17.64 11.44Q17.12 11.44 16.66 11.66Q16.19 11.89 15.65 12.27L15.65 12.27Q15.65 13.04 15.63 14.58Q15.62 16.11 15.62 16.86L15.62 16.86L14.61 17.17L14.53 17.04Q14.71 13.50 14.72 11.49L14.72 11.49Q14.72 11.26 14.73 10.82Q14.73 10.38 14.73 10.18Q14.73 9.97 14.72 9.65Q14.71 9.32 14.68 9.15Q14.65 8.97 14.59 8.78Q14.53 8.59 14.44 8.46L14.44 8.46Q14.42 8.44 14.39 8.41Q14.36 8.38 14.30 8.36Q14.25 8.33 14.19 8.31Q14.14 8.29 14.06 8.27Q13.99 8.24 13.93 8.23Q13.88 8.22 13.78 8.19Q13.69 8.17 13.64 8.16Q13.59 8.15 13.49 8.13Q13.40 8.11 13.36 8.10L13.36 8.10L13.36 7.85L13.43 7.79L15.65 7.55L15.73 7.66Q15.67 8.85 15.67 11.52L15.67 11.52L15.78 11.63Q16.31 11.31 16.67 11.12Q17.04 10.92 17.58 10.75Q18.12 10.57 18.60 10.57L18.60 10.57Q18.78 10.57 19.05 10.67Q19.33 10.78 19.51 10.96L19.51 10.96Q19.60 11.04 19.66 11.15Q19.72 11.27 19.76 11.43Q19.80 11.60 19.82 11.74Q19.84 11.89 19.84 12.13Q19.85 12.37 19.85 12.53Q19.85 12.69 19.85 12.99Q19.84 13.29 19.84 13.45L19.84 13.45L19.84 14.49Q19.84 14.55 19.84 14.76Q19.83 14.96 19.83 15.08Q19.84 15.20 19.85 15.40Q19.87 15.61 19.91 15.73Q19.95 15.85 20.01 15.97Q20.08 16.10 20.19 16.16Q20.31 16.22 20.46 16.22L20.46 16.22Q21.06 16.22 21.72 15.59ZM23.54 11.55L23.54 11.55Q23.16 11.95 23.03 12.41Q22.89 12.87 22.89 13.45L22.89 13.45Q22.89 13.54 22.92 13.70L22.92 13.70L22.98 13.76L25.81 12.64Q25.98 12.58 25.98 12.27L25.98 12.27Q25.98 11.79 25.62 11.38Q25.27 10.96 24.71 10.96L24.71 10.96Q24.01 10.96 23.54 11.55ZM26.89 12.63L26.89 12.63L22.95 14.33Q22.98 14.69 23.10 15.02Q23.21 15.35 23.41 15.65Q23.62 15.95 23.96 16.13Q24.31 16.30 24.75 16.30L24.75 16.30Q25.69 16.30 26.91 15.35L26.91 15.35L27.06 15.38L27.25 15.63Q25.51 17.26 24.06 17.26L24.06 17.26Q23.52 17.26 23.10 17.06Q22.68 16.86 22.43 16.55Q22.18 16.23 22.02 15.78Q21.85 15.33 21.79 14.88Q21.73 14.44 21.73 13.92L21.73 13.92Q21.73 12.48 22.44 11.66L22.44 11.66Q22.96 11.05 23.68 10.73Q24.40 10.40 25.20 10.40L25.20 10.40Q26.09 10.40 26.64 10.95Q27.19 11.50 27.19 12.33L27.19 12.33Q27.19 12.41 27.14 12.47Q27.09 12.53 27.05 12.55Q27.00 12.58 26.89 12.63ZM29.83 16.84L29.83 16.84L28.85 17.17L28.64 17.08Q28.77 13.88 28.77 12.92L28.77 12.92Q28.77 12.10 28.67 11.70Q28.57 11.31 28.25 11.31L28.25 11.31Q28.11 11.31 27.92 11.38Q27.74 11.46 27.60 11.54Q27.45 11.63 27.20 11.80L27.20 11.80L26.96 11.49Q27.38 11.19 27.61 11.03Q27.85 10.86 28.23 10.68Q28.61 10.49 28.85 10.49L28.85 10.49Q29.33 10.49 29.56 10.75Q29.79 11.01 29.86 11.45L29.86 11.45L29.97 11.53Q30.73 11.07 31.37 10.80Q32.01 10.52 32.61 10.52L32.61 10.52Q33.34 10.52 33.69 10.93L33.69 10.93Q33.82 11.09 33.89 11.59Q33.95 12.09 33.96 12.48Q33.97 12.86 33.97 13.51L33.97 13.51Q33.97 15.17 33.99 15.34L33.99 15.34Q34.02 16.00 34.26 16.15L34.26 16.15Q34.40 16.25 34.64 16.25L34.64 16.25Q35.03 16.25 35.77 15.69L35.77 15.69L35.95 15.69L36.07 15.98Q35.54 16.51 34.94 16.87Q34.34 17.23 33.87 17.23L33.87 17.23Q32.87 17.23 32.87 16.00L32.87 16.00L32.94 13.60Q32.94 12.48 32.66 11.91Q32.38 11.35 31.68 11.35L31.68 11.35Q30.95 11.35 29.87 12.20L29.87 12.20Q29.78 14.38 29.78 15.46L29.78 15.46Q29.78 15.86 29.83 16.84ZM41.07 11.05L41.07 11.05L41.81 10.62L41.88 10.69Q41.79 12.36 41.79 13.75L41.79 13.75Q41.79 13.88 41.78 14.16Q41.77 14.44 41.77 14.65Q41.77 14.86 41.77 15.14Q41.77 15.42 41.81 15.61Q41.84 15.81 41.90 15.99Q41.96 16.17 42.07 16.27Q42.18 16.37 42.34 16.37L42.34 16.37Q42.57 16.37 43.25 16.11L43.25 16.11L43.35 16.45Q43.31 16.47 43.16 16.56Q43.01 16.65 42.95 16.69Q42.90 16.72 42.75 16.80Q42.61 16.88 42.53 16.93Q42.46 16.97 42.33 17.03Q42.21 17.10 42.12 17.13Q42.03 17.16 41.93 17.20Q41.83 17.23 41.75 17.25Q41.67 17.26 41.59 17.26L41.59 17.26Q41.23 17.26 41.04 17.05Q40.86 16.83 40.79 16.43L40.79 16.43L40.58 16.38Q39.25 17.26 38.29 17.26L38.29 17.26Q37.74 17.26 37.32 17.01Q36.91 16.76 36.68 16.34Q36.46 15.93 36.35 15.47Q36.24 15.00 36.24 14.50L36.24 14.50Q36.24 13.89 36.35 13.33Q36.47 12.77 36.73 12.26Q36.99 11.76 37.37 11.38Q37.75 11.01 38.32 10.79Q38.88 10.57 39.57 10.57L39.57 10.57Q39.93 10.57 40.34 10.69Q40.74 10.82 41.07 11.05ZM40.76 15.70L40.76 15.70L40.76 12.48Q40.76 12.24 40.76 12.11Q40.75 11.98 40.69 11.81Q40.64 11.63 40.54 11.52L40.54 11.52Q40.09 11.05 39.59 11.05L39.59 11.05Q38.81 11.05 38.25 11.59L38.25 11.59Q37.97 11.87 37.74 12.49Q37.52 13.12 37.50 14.08L37.50 14.08Q37.47 15.12 37.89 15.76L37.89 15.76Q38.25 16.33 39.28 16.33L39.28 16.33Q39.95 16.33 40.76 15.70Z"></path></g><!----><g data-v-423bf9ae="" id="7ec0caa8-16c2-49f9-8e27-34e071f52b3d" transform="matrix(3.860175764033615,0,0,3.860175764033615,0.23718777546216074,-16.421744111390325)" stroke="none" fill="white"><path d="M12.289 5.343v19.9L1 13.954V5.343h11.289m1-1H0v10.026l13.289 13.289V4.343zM31 5.343v8.612L19.711 25.243v-19.9H31m1-1H18.711v23.315L32 14.369V4.343z"></path></g><!----></svg>